<?xml version="1.0" encoding="UTF-8"?>
<!DOCTYPE svg PUBLIC "-//W3C//DTD SVG 1.1//EN" "http://www.w3.org/Graphics/SVG/1.1/DTD/svg11.dtd">
<svg version="1.1" xmlns="http://www.w3.org/2000/svg" xmlns:xlink="http://www.w3.org/1999/xlink" x="0" y="0" width="400" height="400" viewBox="0, 0, 400, 400">
  <g id="Layer_1">
    <path d="M212,13 C314.725,13 398,96.275 398,199 C398,301.725 314.725,385 212,385 C120.025,385 43.654,318.238 28.675,230.534 L28.782,230.537 C46.42,230.537 60.718,216.239 60.718,198.602 C60.718,180.973 46.433,166.681 28.807,166.667 C44.112,79.356 120.304,13 212,13 z M107.603,252.526 C105.557,252.526 103.665,252.873 101.928,253.568 C100.19,254.263 98.704,255.238 97.469,256.492 C96.233,257.747 95.268,259.233 94.573,260.951 C93.878,262.669 93.531,264.552 93.531,266.598 C93.531,268.644 93.878,270.526 94.573,272.244 C95.268,273.962 96.233,275.448 97.469,276.703 C98.704,277.957 100.19,278.932 101.928,279.627 C103.665,280.322 105.557,280.669 107.603,280.669 C109.649,280.669 111.531,280.322 113.249,279.627 C114.967,278.932 116.453,277.957 117.708,276.703 C118.963,275.448 119.937,273.962 120.632,272.244 C121.327,270.526 121.675,268.644 121.675,266.598 C121.675,264.552 121.327,262.669 120.632,260.951 C119.937,259.233 118.963,257.747 117.708,256.492 C116.453,255.238 114.967,254.263 113.249,253.568 C111.531,252.873 109.649,252.526 107.603,252.526 z M107.603,255.653 C109.224,255.653 110.691,255.942 112.004,256.521 C113.316,257.1 114.436,257.882 115.363,258.867 C116.289,259.851 116.994,261.009 117.476,262.341 C117.959,263.673 118.2,265.092 118.2,266.598 C118.2,268.103 117.959,269.522 117.476,270.854 C116.994,272.186 116.289,273.344 115.363,274.328 C114.436,275.313 113.316,276.095 112.004,276.674 C110.691,277.253 109.224,277.542 107.603,277.542 C105.981,277.542 104.514,277.253 103.202,276.674 C101.889,276.095 100.77,275.313 99.843,274.328 C98.916,273.344 98.212,272.186 97.729,270.854 C97.247,269.522 97.005,268.103 97.005,266.598 C97.005,265.092 97.247,263.673 97.729,262.341 C98.212,261.009 98.916,259.851 99.843,258.867 C100.77,257.882 101.889,257.1 103.202,256.521 C104.514,255.942 105.981,255.653 107.603,255.653 z M132.619,253.221 L129.145,253.221 L129.145,269.146 C129.145,270.613 129.28,272.041 129.55,273.431 C129.821,274.821 130.332,276.046 131.085,277.108 C131.838,278.17 132.88,279.029 134.212,279.685 C135.544,280.341 137.252,280.669 139.337,280.669 C141.499,280.669 143.391,280.139 145.012,279.077 C146.633,278.015 147.792,276.751 148.486,275.284 L148.66,275.284 C148.737,275.554 148.786,276.153 148.805,277.079 C148.824,278.006 148.853,278.971 148.892,279.975 L152.366,279.975 C152.366,279.627 152.347,279.135 152.308,278.498 C152.27,277.861 152.241,277.176 152.222,276.442 C152.202,275.709 152.173,274.985 152.135,274.271 C152.096,273.556 152.077,272.948 152.077,272.446 L152.077,253.221 L148.602,253.221 L148.602,266.598 C148.602,268.451 148.361,270.062 147.878,271.433 C147.396,272.803 146.74,273.942 145.91,274.85 C145.079,275.757 144.095,276.432 142.956,276.876 C141.817,277.32 140.611,277.542 139.337,277.542 C137.947,277.542 136.818,277.301 135.949,276.819 C135.081,276.336 134.405,275.689 133.922,274.879 C133.44,274.068 133.102,273.151 132.909,272.128 C132.716,271.105 132.619,270.053 132.619,268.972 L132.619,253.221 z M220.699,236.195 L217.224,236.195 L217.224,257.911 L217.109,257.911 C216.568,256.985 215.893,256.184 215.082,255.508 C214.271,254.832 213.393,254.273 212.447,253.829 C211.501,253.385 210.507,253.057 209.465,252.844 C208.422,252.632 207.399,252.526 206.395,252.526 C204.349,252.526 202.458,252.873 200.72,253.568 C198.983,254.263 197.497,255.238 196.261,256.492 C195.026,257.747 194.061,259.233 193.366,260.951 C192.671,262.669 192.324,264.552 192.324,266.598 C192.324,268.644 192.671,270.526 193.366,272.244 C194.061,273.962 195.026,275.448 196.261,276.703 C197.497,277.957 198.983,278.932 200.72,279.627 C202.458,280.322 204.349,280.669 206.395,280.669 C207.399,280.669 208.422,280.563 209.465,280.351 C210.507,280.139 211.501,279.81 212.447,279.366 C213.393,278.923 214.271,278.363 215.082,277.687 C215.893,277.012 216.568,276.211 217.109,275.284 L217.224,275.284 L217.224,279.975 L220.699,279.975 L220.699,236.195 z M206.395,255.653 C207.978,255.653 209.445,255.942 210.797,256.521 C212.148,257.1 213.325,257.882 214.329,258.867 C215.333,259.851 216.124,261.009 216.703,262.341 C217.282,263.673 217.572,265.092 217.572,266.598 C217.572,268.103 217.282,269.522 216.703,270.854 C216.124,272.186 215.333,273.344 214.329,274.328 C213.325,275.313 212.148,276.095 210.797,276.674 C209.445,277.253 207.978,277.542 206.395,277.542 C204.774,277.542 203.307,277.253 201.994,276.674 C200.682,276.095 199.562,275.313 198.636,274.328 C197.709,273.344 197.005,272.186 196.522,270.854 C196.039,269.522 195.798,268.103 195.798,266.598 C195.798,265.092 196.039,263.673 196.522,262.341 C197.005,261.009 197.709,259.851 198.636,258.867 C199.562,257.882 200.682,257.1 201.994,256.521 C203.307,255.942 204.774,255.653 206.395,255.653 z M239.346,252.526 C237.608,252.526 235.794,252.844 233.902,253.481 C232.01,254.118 230.428,255.054 229.154,256.29 L231.18,258.664 C233.536,256.656 236.257,255.653 239.346,255.653 C241.508,255.653 243.303,256.155 244.731,257.158 C246.16,258.162 246.874,259.822 246.874,262.139 L246.874,263.76 L242.82,263.76 C241.508,263.76 239.992,263.847 238.274,264.021 C236.556,264.194 234.935,264.58 233.41,265.179 C231.885,265.777 230.601,266.675 229.559,267.872 C228.517,269.068 227.995,270.69 227.995,272.736 C227.995,274.164 228.275,275.38 228.835,276.384 C229.395,277.388 230.119,278.208 231.007,278.845 C231.895,279.482 232.898,279.946 234.018,280.235 C235.138,280.525 236.277,280.669 237.435,280.669 C239.713,280.669 241.594,280.264 243.081,279.453 C244.567,278.643 245.812,277.369 246.816,275.631 L246.932,275.631 C246.932,277.214 247.048,278.662 247.279,279.975 L250.522,279.975 C250.406,279.203 250.319,278.43 250.262,277.658 C250.204,276.886 250.155,276.056 250.117,275.168 C250.078,274.28 250.049,273.315 250.03,272.273 C250.011,271.23 250.001,270.053 250.001,268.74 L250.001,262.197 C250.001,258.799 249.036,256.338 247.105,254.813 C245.175,253.288 242.589,252.526 239.346,252.526 z M246.874,266.54 L246.874,268.335 C246.874,269.454 246.739,270.564 246.469,271.665 C246.198,272.765 245.706,273.749 244.992,274.618 C244.278,275.487 243.322,276.191 242.125,276.732 C240.928,277.272 239.404,277.542 237.551,277.542 C236.817,277.542 236.093,277.436 235.379,277.224 C234.665,277.012 234.018,276.703 233.439,276.297 C232.86,275.892 232.387,275.371 232.02,274.734 C231.654,274.097 231.47,273.373 231.47,272.562 C231.47,271.404 231.798,270.439 232.454,269.667 C233.111,268.895 233.989,268.277 235.089,267.814 C236.19,267.35 237.425,267.022 238.796,266.829 C240.166,266.636 241.585,266.54 243.052,266.54 L246.874,266.54 z M264.71,245.519 L261.235,245.519 L261.235,253.221 L255.444,253.221 L255.444,256.348 L261.235,256.348 L261.235,273.778 C261.235,274.743 261.361,275.641 261.612,276.471 C261.863,277.301 262.258,278.025 262.799,278.643 C263.339,279.26 264.053,279.753 264.941,280.119 C265.829,280.486 266.891,280.669 268.126,280.669 C268.783,280.669 269.536,280.573 270.385,280.38 C271.234,280.187 271.987,279.975 272.643,279.743 L272.354,276.616 C271.736,276.886 271.09,277.108 270.414,277.282 C269.738,277.456 269.072,277.542 268.416,277.542 C267.258,277.542 266.351,277.214 265.694,276.558 C265.038,275.902 264.71,274.975 264.71,273.778 L264.71,256.348 L272.354,256.348 L272.354,253.221 L264.71,253.221 L264.71,245.519 z M305.072,252.526 C303.026,252.526 301.135,252.873 299.397,253.568 C297.66,254.263 296.174,255.238 294.938,256.492 C293.703,257.747 292.738,259.233 292.043,260.951 C291.348,262.669 291.001,264.552 291.001,266.598 C291.001,268.644 291.348,270.526 292.043,272.244 C292.738,273.962 293.703,275.448 294.938,276.703 C296.174,277.957 297.66,278.932 299.397,279.627 C301.135,280.322 303.026,280.669 305.072,280.669 C307.118,280.669 309.001,280.322 310.719,279.627 C312.436,278.932 313.923,277.957 315.177,276.703 C316.432,275.448 317.407,273.962 318.102,272.244 C318.797,270.526 319.144,268.644 319.144,266.598 C319.144,264.552 318.797,262.669 318.102,260.951 C317.407,259.233 316.432,257.747 315.177,256.492 C313.923,255.238 312.436,254.263 310.719,253.568 C309.001,252.873 307.118,252.526 305.072,252.526 z M305.072,255.653 C306.694,255.653 308.161,255.942 309.474,256.521 C310.786,257.1 311.906,257.882 312.832,258.867 C313.759,259.851 314.463,261.009 314.946,262.341 C315.428,263.673 315.67,265.092 315.67,266.598 C315.67,268.103 315.428,269.522 314.946,270.854 C314.463,272.186 313.759,273.344 312.832,274.328 C311.906,275.313 310.786,276.095 309.474,276.674 C308.161,277.253 306.694,277.542 305.072,277.542 C303.451,277.542 301.984,277.253 300.671,276.674 C299.359,276.095 298.239,275.313 297.313,274.328 C296.386,273.344 295.682,272.186 295.199,270.854 C294.716,269.522 294.475,268.103 294.475,266.598 C294.475,265.092 294.716,263.673 295.199,262.341 C295.682,261.009 296.386,259.851 297.313,258.867 C298.239,257.882 299.359,257.1 300.671,256.521 C301.984,255.942 303.451,255.653 305.072,255.653 z M87.856,235.5 C87.006,235.501 86.109,235.645 85.163,235.935 C84.217,236.224 83.358,236.717 82.586,237.411 C81.814,238.106 81.167,239.023 80.646,240.162 C80.125,241.301 79.864,242.739 79.864,244.476 L79.864,253.221 L74.305,253.221 L74.305,256.348 L79.864,256.348 L79.864,279.975 L83.339,279.975 L83.339,256.348 L89.593,256.348 L89.593,253.221 L83.339,253.221 L83.339,245.75 C83.339,241.002 84.902,238.628 88.029,238.628 C89.342,238.628 90.384,238.821 91.156,239.207 L91.851,236.195 C90.809,235.732 89.477,235.501 87.856,235.5 z M174.372,252.526 C172.21,252.526 170.318,253.057 168.697,254.118 C167.075,255.18 165.917,256.444 165.222,257.911 L165.048,257.911 C164.971,257.641 164.923,257.043 164.904,256.116 C164.884,255.189 164.855,254.224 164.817,253.221 L161.342,253.221 C161.342,253.568 161.362,254.06 161.4,254.697 C161.439,255.334 161.468,256.02 161.487,256.753 C161.506,257.487 161.535,258.21 161.574,258.925 C161.613,259.639 161.632,260.247 161.632,260.749 L161.632,279.975 L165.106,279.975 L165.106,266.598 C165.106,264.745 165.348,263.133 165.83,261.762 C166.313,260.392 166.969,259.253 167.799,258.345 C168.629,257.438 169.614,256.763 170.753,256.319 C171.891,255.875 173.098,255.653 174.372,255.653 C175.762,255.653 176.891,255.894 177.759,256.377 C178.628,256.859 179.304,257.506 179.786,258.317 C180.269,259.127 180.607,260.044 180.8,261.067 C180.993,262.09 181.089,263.142 181.089,264.223 L181.089,279.975 L184.564,279.975 L184.564,264.05 C184.564,262.583 184.419,261.154 184.129,259.764 C183.84,258.375 183.319,257.149 182.566,256.087 C181.813,255.025 180.78,254.167 179.468,253.51 C178.155,252.854 176.456,252.526 174.372,252.526 z M282.662,253.221 L279.187,253.221 L279.187,279.975 L282.662,279.975 L282.662,253.221 z M339.644,252.526 C337.482,252.526 335.591,253.057 333.969,254.118 C332.348,255.18 331.189,256.444 330.494,257.911 L330.321,257.911 C330.243,257.641 330.195,257.043 330.176,256.116 C330.157,255.189 330.128,254.224 330.089,253.221 L326.615,253.221 C326.615,253.568 326.634,254.06 326.672,254.697 C326.711,255.334 326.74,256.02 326.759,256.753 C326.779,257.487 326.808,258.21 326.846,258.925 C326.885,259.639 326.904,260.247 326.904,260.749 L326.904,279.975 L330.379,279.975 L330.379,266.598 C330.379,264.745 330.62,263.133 331.103,261.762 C331.585,260.392 332.241,259.253 333.071,258.345 C333.901,257.438 334.886,256.763 336.025,256.319 C337.164,255.875 338.37,255.653 339.644,255.653 C341.034,255.653 342.163,255.894 343.032,256.377 C343.9,256.859 344.576,257.506 345.059,258.317 C345.541,259.127 345.879,260.044 346.072,261.067 C346.265,262.09 346.362,263.142 346.362,264.223 L346.362,279.975 L349.836,279.975 L349.836,264.05 C349.836,262.583 349.691,261.154 349.402,259.764 C349.112,258.375 348.591,257.149 347.838,256.087 C347.085,255.025 346.053,254.167 344.74,253.51 C343.427,252.854 341.729,252.526 339.644,252.526 z M280.924,240.017 C280.191,240.017 279.573,240.268 279.071,240.77 C278.569,241.272 278.318,241.89 278.318,242.623 C278.318,243.357 278.569,243.975 279.071,244.476 C279.573,244.978 280.191,245.229 280.924,245.229 C281.658,245.229 282.276,244.978 282.777,244.476 C283.279,243.975 283.53,243.357 283.53,242.623 C283.53,241.89 283.279,241.272 282.777,240.77 C282.276,240.268 281.658,240.017 280.924,240.017 z M294.415,136.403 L227.49,136.403 L227.49,151.843 L251.383,151.843 L251.383,220.588 L270.404,220.588 L270.404,151.843 L294.415,151.843 L294.415,136.403 z M96.75,136.403 L76.321,136.403 L76.321,220.588 L94.226,220.588 L94.226,174.327 C94.226,168.378 94.07,163.838 93.756,160.707 L93.991,160.707 C94.774,162.273 96.183,164.602 98.218,167.693 L132.914,220.588 L152.052,220.588 L152.052,136.403 L134.147,136.403 L134.147,182.957 C134.147,188.632 134.303,192.487 134.616,194.522 L134.381,194.522 L130.155,187.654 L96.75,136.403 z M219.858,136.403 L171.308,136.403 L171.308,220.588 L221.795,220.588 L221.795,205.207 L190.27,205.207 L190.27,185.951 L217.803,185.951 L217.803,170.57 L190.27,170.57 L190.27,151.843 L219.858,151.843 L219.858,136.403 z" fill="#682A7A"/>
    <path d="M51.282,199.167 C51.282,212.146 40.761,222.667 27.782,222.667 C14.803,222.667 4.283,212.146 4.283,199.167 C4.283,186.188 14.803,175.667 27.782,175.667 C40.761,175.667 51.282,186.188 51.282,199.167" fill="#682A7A"/>
  </g>
</svg>
